# xmcd
#
# Track frame offsets:
#	150
#	20522
#	33777
#	50432
#	65795
#	79487
#	91790
#	110937
#	128192
#	143272
#	158150
#	177347
#	187537
#	201812
#
# Disc length: 2911 seconds
#
# Revision: 1
# Processed by: cddbd v1.4PL0 Copyright (c) Steve Scherf et al.
# Submitted via: audiograbber 1.81.01
#
DISCID=b60b5d0e
DTITLE=Bellamy Brothers - The Reason For The Season
DYEAR=2002
DGENRE=Country
TTITLE0=The Reason For The Season
TTITLE1=God Bless America This Christmas
TTITLE2=Merry Christmas And A Happy New Year
TTITLE3=Tropical Christmas
TTITLE4=Jingle Bells (A Cowboy's Holiday)
TTITLE5=White Christmas
TTITLE6=We All Get Crazy At Christmas
TTITLE7=Light Up The Candles
TTITLE8=Rudolph The Red-Nosed Reindeer
TTITLE9=Old Hippie Christmas
TTITLE10=Our Love Is Like Christmas
TTITLE11=Rockin' Around The Christmas Tree
TTITLE12=It's So Close To Christmas (And I'm So Far From Home)
TTITLE13=Let Your Love Flow (Reggae Holiday Mix)
EXTD=
EXTT0=
EXTT1=
EXTT2=
EXTT3=
EXTT4=
EXTT5=
EXTT6=
EXTT7=
EXTT8=
EXTT9=
EXTT10=
EXTT11=
EXTT12=
EXTT13=
PLAYORDER=
